<svg width="160" height="36" xmlns="http://www.w3.org/2000/svg">
 <!-- Created with SVG Editor - http://github.com/mzalive/SVG Editor/ -->
 <g>
  <title>background</title>
  <rect fill="none" id="canvas_background" height="38" width="162" y="-1" x="-1"/>
  <g display="none" overflow="visible" y="0" x="0" height="100%" width="100%" id="canvasGrid">
   <rect fill="url(#gridpattern)" stroke-width="0" y="0" x="0" height="100%" width="100%"/>
  </g>
 </g>
 <g>
  <title>Layer 1</title>
  <text font-weight="bold" xml:space="preserve" text-anchor="start" font-family="'Palatino Linotype', 'Book Antiqua', Palatino, serif" font-size="24" id="svg_1" y="25.812912" x="49.741459" stroke-width="0" stroke="#000" fill="#0707f9">FRIDEAS</text>
  <path id="svg_2" d="m47.655796,10.018173c-1.669647,1.976151 -8.866425,4.480774 -9.794922,4.480774l-7.889847,0c-1.312561,0 -3.281708,0.272461 -4.209122,0.903076c0.106049,0.09639 0.21286,0.198563 0.314331,0.300735c0.714554,0.704224 2.379288,1.698227 3.8573,1.698227c0.693619,0 1.263931,-0.210129 1.749924,-0.65892c2.059174,-1.873978 3.125824,-2.089859 3.749741,-2.089859c0.730896,0 1.366425,0.357864 1.739502,0.98822c0.698853,1.164261 0.18692,2.686157 -0.341034,3.878723c-1.254272,2.839676 -5.34581,5.906509 -9.77919,5.906509c-0.005341,0 -0.005341,0 -0.005341,0c-0.618423,0 -1.227249,-0.062622 -1.808609,-0.187576l0,6.048233c0,1.385925 1.808609,4.713684 7.287216,4.713684s6.914398,-6.882935 6.914398,-8.070007l0,-8.399307c3.894791,-2.175293 7.884933,-3.356323 9.794968,-7.246582c1.792099,-3.651855 0.09079,-4.242371 -1.579315,-2.26593zm-12.254639,8.79126c1.393127,-3.157761 -0.090027,-3.157761 -2.693832,-0.789368s-6.406784,0.193069 -7.703018,-1.090393c-1.302338,-1.278 -2.59845,-2.26593 -4.919266,-2.16954c-2.320847,0.09668 -7.799469,-0.301025 -10.957916,-1.090393c-3.153259,-0.789368 -8.556595,-5.582703 -8.999863,-4.344543c-0.463867,1.283493 0.3685,2.175034 2.038025,4.344543c1.669556,2.175034 8.872116,5.173752 8.872116,5.173752s0,6.423157 0,9.092285c0,2.669128 5.201675,6.712662 7.890259,6.712662s4.731583,-1.976196 4.731583,-3.356323l0,-8.399353c4.459824,2.476059 10.349655,-0.920105 11.741913,-4.083328zm-2.795303,-7.053513c3.04631,0 5.522049,-2.629578 5.522049,-5.87796c0,-3.248383 -2.475739,-5.87796 -5.522049,-5.87796s-5.521332,2.629578 -5.521332,5.87796c0,3.248383 2.46994,5.87796 5.521332,5.87796zm-14.553268,0c3.051727,0 5.521973,-2.629578 5.521973,-5.87796c0,-3.248383 -2.470245,-5.87796 -5.521973,-5.87796c-3.046417,0 -5.521347,2.629578 -5.521347,5.87796c0,3.248383 2.469589,5.87796 5.521347,5.87796z" stroke-width="1.5" fill="#ff0000"/>
 </g>
</svg>